<?xml version="1.0" encoding="UTF-8"?>
<svg xmlns="http://www.w3.org/2000/svg" viewBox="0 0 1300 2384" width="1300" height="2384" role="img" aria-label="UML use case diagram of the PCU QR and face attendance system, showing six roles and twenty-six use cases grouped into six functional packages" font-family="'Segoe UI', 'Helvetica Neue', Arial, sans-serif">
  <defs>
    <marker id="uc-open" markerWidth="11" markerHeight="11" refX="9.5" refY="5.5" orient="auto"><path d="M1.5,1.5 L9.5,5.5 L1.5,9.5" fill="none" stroke="var(--uc-soft, #5B6B66)" stroke-width="1.3" stroke-linecap="round" stroke-linejoin="round"/></marker>
  </defs>
  <rect x="0" y="0" width="1300" height="2384" fill="var(--uc-bg, #FFFFFF)"/>
  <rect x="280" y="60" width="760" height="2268" rx="10" fill="none" stroke="var(--uc-rule, #C7D2CE)" stroke-width="1.6"/>
  <text x="302" y="94" font-size="14.5" font-weight="600" letter-spacing="0.14em" fill="var(--uc-ink, #16201D)">PCU QR + FACE ATTENDANCE SYSTEM</text>
  <g data-role="user" stroke="var(--uc-user, #4B5B67)" stroke-width="1.5" fill="none" stroke-linecap="round">
    <path d="M44 250 L44 2179"/>
    <path d="M44 629 L112 629"/>
    <path d="M44 1020 L112 1020"/>
    <path d="M44 1557 L112 1557"/>
    <path d="M44 1936 L112 1936"/>
    <path d="M44 2179 L112 2179"/>
    <path d="M44 250 L98 250"/>
    <polygon points="112,250 98,243 98,257" fill="var(--uc-bg, #FFFFFF)" stroke="var(--uc-user, #4B5B67)" stroke-width="1.5" stroke-linejoin="round"/>
  </g>
  <g data-role="user">
    <rect x="300" y="118" width="700" height="255" rx="9" fill="var(--uc-user, #4B5B67)" fill-opacity="0.045" stroke="var(--uc-user, #4B5B67)" stroke-opacity="0.4" stroke-dasharray="7 5"/>
    <text x="316" y="142" font-size="11" font-weight="700" letter-spacing="0.13em" fill="var(--uc-user, #4B5B67)">A · ACCESS &amp; IDENTITY</text>
    <g stroke="var(--uc-user, #4B5B67)" stroke-width="1.4" stroke-opacity="0.85" fill="none">
      <path d="M148 250 L345 194"/>
      <path d="M148 250 L345 262"/>
      <path d="M148 250 L345 330"/>
    </g>
    <circle cx="130" cy="228" r="12" fill="var(--uc-bg, #FFFFFF)" stroke="var(--uc-user, #4B5B67)" stroke-width="2"/>
    <path d="M130 240 L130 270 M112 250 L148 250 M130 270 L116 292 M130 270 L144 292" fill="none" stroke="var(--uc-user, #4B5B67)" stroke-width="2" stroke-linecap="round"/>
    <text x="130" y="318" text-anchor="middle" font-size="12.5" font-weight="600" fill="var(--uc-user, #4B5B67)">User</text>
    <text x="130" y="334" text-anchor="middle" font-size="10.5" font-style="italic" fill="var(--uc-soft, #5B6B66)">(every role)</text>
      <ellipse cx="850" cy="262" rx="120" ry="25" fill="var(--uc-user, #4B5B67)" fill-opacity="0.05" stroke="var(--uc-user, #4B5B67)" stroke-opacity="0.55" stroke-width="1.2"/>
      <text x="850" y="259" text-anchor="middle" font-size="11.5" fill="var(--uc-ink, #16201D)">Forced password reset</text>
      <text x="850" y="275" text-anchor="middle" font-size="11.5" fill="var(--uc-ink, #16201D)">on first sign-in</text>
      <path d="M730 262 L635 262" fill="none" stroke="var(--uc-soft, #5B6B66)" stroke-width="1.2" stroke-dasharray="6 4" marker-end="url(#uc-open)"/>
      <text x="682.5" y="253" text-anchor="middle" font-size="9.5" font-style="italic" fill="var(--uc-soft, #5B6B66)">«extend»</text>
      <text x="348" y="163" font-size="9.5" font-family="'Cascadia Mono', Consolas, 'DejaVu Sans Mono', monospace" letter-spacing="0.06em" fill="var(--uc-soft, #5B6B66)">A1</text>
      <ellipse cx="490" cy="194" rx="145" ry="25" fill="var(--uc-user, #4B5B67)" fill-opacity="0.13" stroke="var(--uc-user, #4B5B67)" stroke-width="1.6"/>
      <text x="490" y="198.5" text-anchor="middle" font-size="12.5" fill="var(--uc-ink, #16201D)">Sign in</text>
      <text x="348" y="231" font-size="9.5" font-family="'Cascadia Mono', Consolas, 'DejaVu Sans Mono', monospace" letter-spacing="0.06em" fill="var(--uc-soft, #5B6B66)">A2</text>
      <ellipse cx="490" cy="262" rx="145" ry="25" fill="var(--uc-user, #4B5B67)" fill-opacity="0.13" stroke="var(--uc-user, #4B5B67)" stroke-width="1.6"/>
      <text x="490" y="266.5" text-anchor="middle" font-size="12.5" fill="var(--uc-ink, #16201D)">Manage profile and password</text>
      <text x="348" y="299" font-size="9.5" font-family="'Cascadia Mono', Consolas, 'DejaVu Sans Mono', monospace" letter-spacing="0.06em" fill="var(--uc-soft, #5B6B66)">A3</text>
      <ellipse cx="490" cy="330" rx="145" ry="25" fill="var(--uc-user, #4B5B67)" fill-opacity="0.13" stroke="var(--uc-user, #4B5B67)" stroke-width="1.6"/>
      <text x="490" y="334.5" text-anchor="middle" font-size="12.5" fill="var(--uc-ink, #16201D)">Sign out</text>
  </g>
  <g data-role="student">
    <rect x="300" y="395" width="700" height="459" rx="9" fill="var(--uc-student, #0B6B5B)" fill-opacity="0.045" stroke="var(--uc-student, #0B6B5B)" stroke-opacity="0.4" stroke-dasharray="7 5"/>
    <text x="316" y="419" font-size="11" font-weight="700" letter-spacing="0.13em" fill="var(--uc-student, #0B6B5B)">B · ATTENDANCE</text>
    <g stroke="var(--uc-student, #0B6B5B)" stroke-width="1.4" stroke-opacity="0.85" fill="none">
      <path d="M148 629 L345 471"/>
      <path d="M148 629 L345 539"/>
      <path d="M148 629 L345 607"/>
      <path d="M148 629 L345 675"/>
      <path d="M148 629 L345 743"/>
      <path d="M148 629 L345 811"/>
    </g>
    <circle cx="130" cy="607" r="12" fill="var(--uc-bg, #FFFFFF)" stroke="var(--uc-student, #0B6B5B)" stroke-width="2"/>
    <path d="M130 619 L130 649 M112 629 L148 629 M130 649 L116 671 M130 649 L144 671" fill="none" stroke="var(--uc-student, #0B6B5B)" stroke-width="2" stroke-linecap="round"/>
    <text x="130" y="697" text-anchor="middle" font-size="12.5" font-weight="600" fill="var(--uc-student, #0B6B5B)">Student</text>
      <ellipse cx="850" cy="471" rx="120" ry="25" fill="var(--uc-student, #0B6B5B)" fill-opacity="0.05" stroke="var(--uc-student, #0B6B5B)" stroke-opacity="0.55" stroke-width="1.2"/>
      <text x="850" y="475.5" text-anchor="middle" font-size="11.5" fill="var(--uc-ink, #16201D)">Capture and encode face</text>
      <path d="M635 471 L730 471" fill="none" stroke="var(--uc-soft, #5B6B66)" stroke-width="1.2" stroke-dasharray="6 4" marker-end="url(#uc-open)"/>
      <text x="682.5" y="462" text-anchor="middle" font-size="9.5" font-style="italic" fill="var(--uc-soft, #5B6B66)">«include»</text>
      <ellipse cx="850" cy="539" rx="120" ry="25" fill="var(--uc-student, #0B6B5B)" fill-opacity="0.05" stroke="var(--uc-student, #0B6B5B)" stroke-opacity="0.55" stroke-width="1.2"/>
      <text x="850" y="543.5" text-anchor="middle" font-size="11.5" fill="var(--uc-ink, #16201D)">Validate one-shot QR token</text>
      <path d="M587.8 588.5 L761.1 555.8" fill="none" stroke="var(--uc-soft, #5B6B66)" stroke-width="1.2" stroke-dasharray="6 4" marker-end="url(#uc-open)"/>
      <text x="672.8" y="563.3" text-anchor="middle" font-size="9.5" font-style="italic" fill="var(--uc-soft, #5B6B66)">«include»</text>
      <ellipse cx="850" cy="607" rx="120" ry="25" fill="var(--uc-student, #0B6B5B)" fill-opacity="0.05" stroke="var(--uc-student, #0B6B5B)" stroke-opacity="0.55" stroke-width="1.2"/>
      <text x="850" y="611.5" text-anchor="middle" font-size="11.5" fill="var(--uc-ink, #16201D)">Match face to reference photo</text>
      <path d="M635 607 L730 607" fill="none" stroke="var(--uc-soft, #5B6B66)" stroke-width="1.2" stroke-dasharray="6 4" marker-end="url(#uc-open)"/>
      <text x="682.5" y="598" text-anchor="middle" font-size="9.5" font-style="italic" fill="var(--uc-soft, #5B6B66)">«include»</text>
      <ellipse cx="850" cy="675" rx="120" ry="25" fill="var(--uc-student, #0B6B5B)" fill-opacity="0.05" stroke="var(--uc-student, #0B6B5B)" stroke-opacity="0.55" stroke-width="1.2"/>
      <text x="850" y="679.5" text-anchor="middle" font-size="11.5" fill="var(--uc-ink, #16201D)">Confirm course enrollment</text>
      <path d="M587.8 625.5 L761.1 658.2" fill="none" stroke="var(--uc-soft, #5B6B66)" stroke-width="1.2" stroke-dasharray="6 4" marker-end="url(#uc-open)"/>
      <text x="676.1" y="633" text-anchor="middle" font-size="9.5" font-style="italic" fill="var(--uc-soft, #5B6B66)">«include»</text>
      <text x="348" y="440" font-size="9.5" font-family="'Cascadia Mono', Consolas, 'DejaVu Sans Mono', monospace" letter-spacing="0.06em" fill="var(--uc-soft, #5B6B66)">B1</text>
      <ellipse cx="490" cy="471" rx="145" ry="25" fill="var(--uc-student, #0B6B5B)" fill-opacity="0.13" stroke="var(--uc-student, #0B6B5B)" stroke-width="1.6"/>
      <text x="490" y="475.5" text-anchor="middle" font-size="12.5" fill="var(--uc-ink, #16201D)">Register with live face capture</text>
      <text x="348" y="508" font-size="9.5" font-family="'Cascadia Mono', Consolas, 'DejaVu Sans Mono', monospace" letter-spacing="0.06em" fill="var(--uc-soft, #5B6B66)">B2</text>
      <ellipse cx="490" cy="539" rx="145" ry="25" fill="var(--uc-student, #0B6B5B)" fill-opacity="0.13" stroke="var(--uc-student, #0B6B5B)" stroke-width="1.6"/>
      <text x="490" y="543.5" text-anchor="middle" font-size="12.5" fill="var(--uc-ink, #16201D)">Enroll in a course</text>
      <text x="348" y="576" font-size="9.5" font-family="'Cascadia Mono', Consolas, 'DejaVu Sans Mono', monospace" letter-spacing="0.06em" fill="var(--uc-soft, #5B6B66)">B3</text>
      <ellipse cx="490" cy="607" rx="145" ry="25" fill="var(--uc-student, #0B6B5B)" fill-opacity="0.13" stroke="var(--uc-student, #0B6B5B)" stroke-width="1.6"/>
      <text x="490" y="611.5" text-anchor="middle" font-size="12.5" fill="var(--uc-ink, #16201D)">Mark attendance by QR scan</text>
      <text x="348" y="644" font-size="9.5" font-family="'Cascadia Mono', Consolas, 'DejaVu Sans Mono', monospace" letter-spacing="0.06em" fill="var(--uc-soft, #5B6B66)">B4</text>
      <ellipse cx="490" cy="675" rx="145" ry="25" fill="var(--uc-student, #0B6B5B)" fill-opacity="0.13" stroke="var(--uc-student, #0B6B5B)" stroke-width="1.6"/>
      <text x="490" y="679.5" text-anchor="middle" font-size="12.5" fill="var(--uc-ink, #16201D)">View my attendance record</text>
      <text x="348" y="712" font-size="9.5" font-family="'Cascadia Mono', Consolas, 'DejaVu Sans Mono', monospace" letter-spacing="0.06em" fill="var(--uc-soft, #5B6B66)">B5</text>
      <ellipse cx="490" cy="743" rx="145" ry="25" fill="var(--uc-student, #0B6B5B)" fill-opacity="0.13" stroke="var(--uc-student, #0B6B5B)" stroke-width="1.6"/>
      <text x="490" y="747.5" text-anchor="middle" font-size="12.5" fill="var(--uc-ink, #16201D)">File a complaint</text>
      <text x="348" y="780" font-size="9.5" font-family="'Cascadia Mono', Consolas, 'DejaVu Sans Mono', monospace" letter-spacing="0.06em" fill="var(--uc-soft, #5B6B66)">B6</text>
      <ellipse cx="490" cy="811" rx="145" ry="25" fill="var(--uc-student, #0B6B5B)" fill-opacity="0.13" stroke="var(--uc-student, #0B6B5B)" stroke-width="1.6"/>
      <text x="490" y="815.5" text-anchor="middle" font-size="12.5" fill="var(--uc-ink, #16201D)">Track complaint and HOD reply</text>
  </g>
  <g data-role="lecturer">
    <rect x="300" y="876" width="700" height="391" rx="9" fill="var(--uc-lecturer, #2E4C9B)" fill-opacity="0.045" stroke="var(--uc-lecturer, #2E4C9B)" stroke-opacity="0.4" stroke-dasharray="7 5"/>
    <text x="316" y="900" font-size="11" font-weight="700" letter-spacing="0.13em" fill="var(--uc-lecturer, #2E4C9B)">C · LECTURE DELIVERY</text>
    <g stroke="var(--uc-lecturer, #2E4C9B)" stroke-width="1.4" stroke-opacity="0.85" fill="none">
      <path d="M148 1020 L345 952"/>
      <path d="M148 1020 L345 1020"/>
      <path d="M148 1020 L345 1088"/>
      <path d="M148 1020 L345 1156"/>
      <path d="M148 1020 L345 1224"/>
    </g>
    <circle cx="130" cy="998" r="12" fill="var(--uc-bg, #FFFFFF)" stroke="var(--uc-lecturer, #2E4C9B)" stroke-width="2"/>
    <path d="M130 1010 L130 1040 M112 1020 L148 1020 M130 1040 L116 1062 M130 1040 L144 1062" fill="none" stroke="var(--uc-lecturer, #2E4C9B)" stroke-width="2" stroke-linecap="round"/>
    <text x="130" y="1088" text-anchor="middle" font-size="12.5" font-weight="600" fill="var(--uc-lecturer, #2E4C9B)">Lecturer</text>
      <ellipse cx="850" cy="1020" rx="120" ry="25" fill="var(--uc-lecturer, #2E4C9B)" fill-opacity="0.05" stroke="var(--uc-lecturer, #2E4C9B)" stroke-opacity="0.55" stroke-width="1.2"/>
      <text x="850" y="1024.5" text-anchor="middle" font-size="11.5" fill="var(--uc-ink, #16201D)">Issue a fresh QR token</text>
      <path d="M635 1020 L730 1020" fill="none" stroke="var(--uc-soft, #5B6B66)" stroke-width="1.2" stroke-dasharray="6 4" marker-end="url(#uc-open)"/>
      <text x="682.5" y="1011" text-anchor="middle" font-size="9.5" font-style="italic" fill="var(--uc-soft, #5B6B66)">«include»</text>
      <ellipse cx="850" cy="1088" rx="120" ry="25" fill="var(--uc-lecturer, #2E4C9B)" fill-opacity="0.05" stroke="var(--uc-lecturer, #2E4C9B)" stroke-opacity="0.55" stroke-width="1.2"/>
      <text x="850" y="1092.5" text-anchor="middle" font-size="11.5" fill="var(--uc-ink, #16201D)">Rotate token after each scan</text>
      <path d="M635 1088 L730 1088" fill="none" stroke="var(--uc-soft, #5B6B66)" stroke-width="1.2" stroke-dasharray="6 4" marker-end="url(#uc-open)"/>
      <text x="682.5" y="1079" text-anchor="middle" font-size="9.5" font-style="italic" fill="var(--uc-soft, #5B6B66)">«include»</text>
      <ellipse cx="850" cy="1156" rx="120" ry="25" fill="var(--uc-lecturer, #2E4C9B)" fill-opacity="0.05" stroke="var(--uc-lecturer, #2E4C9B)" stroke-opacity="0.55" stroke-width="1.2"/>
      <text x="850" y="1160.5" text-anchor="middle" font-size="11.5" fill="var(--uc-ink, #16201D)">Auto-end at scheduled time</text>
      <path d="M730 1156 L635 1156" fill="none" stroke="var(--uc-soft, #5B6B66)" stroke-width="1.2" stroke-dasharray="6 4" marker-end="url(#uc-open)"/>
      <text x="682.5" y="1147" text-anchor="middle" font-size="9.5" font-style="italic" fill="var(--uc-soft, #5B6B66)">«extend»</text>
      <text x="348" y="921" font-size="9.5" font-family="'Cascadia Mono', Consolas, 'DejaVu Sans Mono', monospace" letter-spacing="0.06em" fill="var(--uc-soft, #5B6B66)">C1</text>
      <ellipse cx="490" cy="952" rx="145" ry="25" fill="var(--uc-lecturer, #2E4C9B)" fill-opacity="0.13" stroke="var(--uc-lecturer, #2E4C9B)" stroke-width="1.6"/>
      <text x="490" y="956.5" text-anchor="middle" font-size="12.5" fill="var(--uc-ink, #16201D)">Schedule a lecture</text>
      <text x="348" y="989" font-size="9.5" font-family="'Cascadia Mono', Consolas, 'DejaVu Sans Mono', monospace" letter-spacing="0.06em" fill="var(--uc-soft, #5B6B66)">C2</text>
      <ellipse cx="490" cy="1020" rx="145" ry="25" fill="var(--uc-lecturer, #2E4C9B)" fill-opacity="0.13" stroke="var(--uc-lecturer, #2E4C9B)" stroke-width="1.6"/>
      <text x="490" y="1024.5" text-anchor="middle" font-size="12.5" fill="var(--uc-ink, #16201D)">Start lecture</text>
      <text x="348" y="1057" font-size="9.5" font-family="'Cascadia Mono', Consolas, 'DejaVu Sans Mono', monospace" letter-spacing="0.06em" fill="var(--uc-soft, #5B6B66)">C3</text>
      <ellipse cx="490" cy="1088" rx="145" ry="25" fill="var(--uc-lecturer, #2E4C9B)" fill-opacity="0.13" stroke="var(--uc-lecturer, #2E4C9B)" stroke-width="1.6"/>
      <text x="490" y="1092.5" text-anchor="middle" font-size="12.5" fill="var(--uc-ink, #16201D)">Present the rotating QR code</text>
      <text x="348" y="1125" font-size="9.5" font-family="'Cascadia Mono', Consolas, 'DejaVu Sans Mono', monospace" letter-spacing="0.06em" fill="var(--uc-soft, #5B6B66)">C4</text>
      <ellipse cx="490" cy="1156" rx="145" ry="25" fill="var(--uc-lecturer, #2E4C9B)" fill-opacity="0.13" stroke="var(--uc-lecturer, #2E4C9B)" stroke-width="1.6"/>
      <text x="490" y="1160.5" text-anchor="middle" font-size="12.5" fill="var(--uc-ink, #16201D)">End lecture</text>
      <text x="348" y="1193" font-size="9.5" font-family="'Cascadia Mono', Consolas, 'DejaVu Sans Mono', monospace" letter-spacing="0.06em" fill="var(--uc-soft, #5B6B66)">C5</text>
      <ellipse cx="490" cy="1224" rx="145" ry="25" fill="var(--uc-lecturer, #2E4C9B)" fill-opacity="0.13" stroke="var(--uc-lecturer, #2E4C9B)" stroke-width="1.6"/>
      <text x="490" y="1228.5" text-anchor="middle" font-size="12.5" fill="var(--uc-ink, #16201D)">View lecture attendance</text>
  </g>
  <g data-role="hod">
    <rect x="300" y="1289" width="700" height="527" rx="9" fill="var(--uc-hod, #8A5A12)" fill-opacity="0.045" stroke="var(--uc-hod, #8A5A12)" stroke-opacity="0.4" stroke-dasharray="7 5"/>
    <text x="316" y="1313" font-size="11" font-weight="700" letter-spacing="0.13em" fill="var(--uc-hod, #8A5A12)">D · DEPARTMENT ADMINISTRATION</text>
    <g stroke="var(--uc-hod, #8A5A12)" stroke-width="1.4" stroke-opacity="0.85" fill="none">
      <path d="M148 1557 L345 1365"/>
      <path d="M148 1557 L345 1433"/>
      <path d="M148 1557 L345 1501"/>
      <path d="M148 1557 L345 1569"/>
      <path d="M148 1557 L345 1637"/>
      <path d="M148 1557 L345 1705"/>
      <path d="M148 1557 L345 1773"/>
    </g>
    <circle cx="130" cy="1535" r="12" fill="var(--uc-bg, #FFFFFF)" stroke="var(--uc-hod, #8A5A12)" stroke-width="2"/>
    <path d="M130 1547 L130 1577 M112 1557 L148 1557 M130 1577 L116 1599 M130 1577 L144 1599" fill="none" stroke="var(--uc-hod, #8A5A12)" stroke-width="2" stroke-linecap="round"/>
    <text x="130" y="1625" text-anchor="middle" font-size="12.5" font-weight="600" fill="var(--uc-hod, #8A5A12)">Head of Department</text>
      <ellipse cx="850" cy="1365" rx="120" ry="25" fill="var(--uc-hod, #8A5A12)" fill-opacity="0.05" stroke="var(--uc-hod, #8A5A12)" stroke-opacity="0.55" stroke-width="1.2"/>
      <text x="850" y="1369.5" text-anchor="middle" font-size="11.5" fill="var(--uc-ink, #16201D)">Generate temporary password</text>
      <path d="M635 1365 L730 1365" fill="none" stroke="var(--uc-soft, #5B6B66)" stroke-width="1.2" stroke-dasharray="6 4" marker-end="url(#uc-open)"/>
      <text x="682.5" y="1356" text-anchor="middle" font-size="9.5" font-style="italic" fill="var(--uc-soft, #5B6B66)">«include»</text>
      <ellipse cx="850" cy="1501" rx="120" ry="25" fill="var(--uc-hod, #8A5A12)" fill-opacity="0.05" stroke="var(--uc-hod, #8A5A12)" stroke-opacity="0.55" stroke-width="1.2"/>
      <text x="850" y="1505.5" text-anchor="middle" font-size="11.5" fill="var(--uc-ink, #16201D)">Assign lecturer and course rep</text>
      <path d="M635 1501 L730 1501" fill="none" stroke="var(--uc-soft, #5B6B66)" stroke-width="1.2" stroke-dasharray="6 4" marker-end="url(#uc-open)"/>
      <text x="682.5" y="1492" text-anchor="middle" font-size="9.5" font-style="italic" fill="var(--uc-soft, #5B6B66)">«include»</text>
      <ellipse cx="850" cy="1569" rx="120" ry="25" fill="var(--uc-hod, #8A5A12)" fill-opacity="0.05" stroke="var(--uc-hod, #8A5A12)" stroke-opacity="0.55" stroke-width="1.2"/>
      <text x="850" y="1573.5" text-anchor="middle" font-size="11.5" fill="var(--uc-ink, #16201D)">Download CSV template</text>
      <path d="M730 1569 L635 1569" fill="none" stroke="var(--uc-soft, #5B6B66)" stroke-width="1.2" stroke-dasharray="6 4" marker-end="url(#uc-open)"/>
      <text x="682.5" y="1560" text-anchor="middle" font-size="9.5" font-style="italic" fill="var(--uc-soft, #5B6B66)">«extend»</text>
      <ellipse cx="850" cy="1637" rx="120" ry="25" fill="var(--uc-hod, #8A5A12)" fill-opacity="0.05" stroke="var(--uc-hod, #8A5A12)" stroke-opacity="0.55" stroke-width="1.2"/>
      <text x="850" y="1641.5" text-anchor="middle" font-size="11.5" fill="var(--uc-ink, #16201D)">Set complaint status</text>
      <path d="M635 1637 L730 1637" fill="none" stroke="var(--uc-soft, #5B6B66)" stroke-width="1.2" stroke-dasharray="6 4" marker-end="url(#uc-open)"/>
      <text x="682.5" y="1628" text-anchor="middle" font-size="9.5" font-style="italic" fill="var(--uc-soft, #5B6B66)">«include»</text>
      <text x="348" y="1334" font-size="9.5" font-family="'Cascadia Mono', Consolas, 'DejaVu Sans Mono', monospace" letter-spacing="0.06em" fill="var(--uc-soft, #5B6B66)">D1</text>
      <ellipse cx="490" cy="1365" rx="145" ry="25" fill="var(--uc-hod, #8A5A12)" fill-opacity="0.13" stroke="var(--uc-hod, #8A5A12)" stroke-width="1.6"/>
      <text x="490" y="1369.5" text-anchor="middle" font-size="12.5" fill="var(--uc-ink, #16201D)">Create a lecturer account</text>
      <text x="348" y="1402" font-size="9.5" font-family="'Cascadia Mono', Consolas, 'DejaVu Sans Mono', monospace" letter-spacing="0.06em" fill="var(--uc-soft, #5B6B66)">D2</text>
      <ellipse cx="490" cy="1433" rx="145" ry="25" fill="var(--uc-hod, #8A5A12)" fill-opacity="0.13" stroke="var(--uc-hod, #8A5A12)" stroke-width="1.6"/>
      <text x="490" y="1437.5" text-anchor="middle" font-size="12.5" fill="var(--uc-ink, #16201D)">Import lecturers from CSV</text>
      <text x="348" y="1470" font-size="9.5" font-family="'Cascadia Mono', Consolas, 'DejaVu Sans Mono', monospace" letter-spacing="0.06em" fill="var(--uc-soft, #5B6B66)">D3</text>
      <ellipse cx="490" cy="1501" rx="145" ry="25" fill="var(--uc-hod, #8A5A12)" fill-opacity="0.13" stroke="var(--uc-hod, #8A5A12)" stroke-width="1.6"/>
      <text x="490" y="1505.5" text-anchor="middle" font-size="12.5" fill="var(--uc-ink, #16201D)">Manage the course catalogue</text>
      <text x="348" y="1538" font-size="9.5" font-family="'Cascadia Mono', Consolas, 'DejaVu Sans Mono', monospace" letter-spacing="0.06em" fill="var(--uc-soft, #5B6B66)">D4</text>
      <ellipse cx="490" cy="1569" rx="145" ry="25" fill="var(--uc-hod, #8A5A12)" fill-opacity="0.13" stroke="var(--uc-hod, #8A5A12)" stroke-width="1.6"/>
      <text x="490" y="1573.5" text-anchor="middle" font-size="12.5" fill="var(--uc-ink, #16201D)">Import courses from CSV</text>
      <text x="348" y="1606" font-size="9.5" font-family="'Cascadia Mono', Consolas, 'DejaVu Sans Mono', monospace" letter-spacing="0.06em" fill="var(--uc-soft, #5B6B66)">D5</text>
      <ellipse cx="490" cy="1637" rx="145" ry="25" fill="var(--uc-hod, #8A5A12)" fill-opacity="0.13" stroke="var(--uc-hod, #8A5A12)" stroke-width="1.6"/>
      <text x="490" y="1641.5" text-anchor="middle" font-size="12.5" fill="var(--uc-ink, #16201D)">Review and answer complaints</text>
      <text x="348" y="1674" font-size="9.5" font-family="'Cascadia Mono', Consolas, 'DejaVu Sans Mono', monospace" letter-spacing="0.06em" fill="var(--uc-soft, #5B6B66)">D6</text>
      <ellipse cx="490" cy="1705" rx="145" ry="25" fill="var(--uc-hod, #8A5A12)" fill-opacity="0.13" stroke="var(--uc-hod, #8A5A12)" stroke-width="1.6"/>
      <text x="490" y="1709.5" text-anchor="middle" font-size="12.5" fill="var(--uc-ink, #16201D)">Escalate complaint to the VC</text>
      <text x="348" y="1742" font-size="9.5" font-family="'Cascadia Mono', Consolas, 'DejaVu Sans Mono', monospace" letter-spacing="0.06em" fill="var(--uc-soft, #5B6B66)">D7</text>
      <ellipse cx="490" cy="1773" rx="145" ry="25" fill="var(--uc-hod, #8A5A12)" fill-opacity="0.13" stroke="var(--uc-hod, #8A5A12)" stroke-width="1.6"/>
      <text x="490" y="1777.5" text-anchor="middle" font-size="12.5" fill="var(--uc-ink, #16201D)">View department dashboard</text>
  </g>
  <g data-role="vc">
    <rect x="300" y="1838" width="700" height="187" rx="9" fill="var(--uc-vc, #8C2F4E)" fill-opacity="0.045" stroke="var(--uc-vc, #8C2F4E)" stroke-opacity="0.4" stroke-dasharray="7 5"/>
    <text x="316" y="1862" font-size="11" font-weight="700" letter-spacing="0.13em" fill="var(--uc-vc, #8C2F4E)">E · OVERSIGHT</text>
    <g stroke="var(--uc-vc, #8C2F4E)" stroke-width="1.4" stroke-opacity="0.85" fill="none">
      <path d="M148 1936 L345 1914"/>
      <path d="M148 1936 L345 1982"/>
    </g>
    <circle cx="130" cy="1914" r="12" fill="var(--uc-bg, #FFFFFF)" stroke="var(--uc-vc, #8C2F4E)" stroke-width="2"/>
    <path d="M130 1926 L130 1956 M112 1936 L148 1936 M130 1956 L116 1978 M130 1956 L144 1978" fill="none" stroke="var(--uc-vc, #8C2F4E)" stroke-width="2" stroke-linecap="round"/>
    <text x="130" y="2004" text-anchor="middle" font-size="12.5" font-weight="600" fill="var(--uc-vc, #8C2F4E)">Vice Chancellor</text>
      <text x="348" y="1883" font-size="9.5" font-family="'Cascadia Mono', Consolas, 'DejaVu Sans Mono', monospace" letter-spacing="0.06em" fill="var(--uc-soft, #5B6B66)">E1</text>
      <ellipse cx="490" cy="1914" rx="145" ry="25" fill="var(--uc-vc, #8C2F4E)" fill-opacity="0.13" stroke="var(--uc-vc, #8C2F4E)" stroke-width="1.6"/>
      <text x="490" y="1918.5" text-anchor="middle" font-size="12.5" fill="var(--uc-ink, #16201D)">View escalation dashboard</text>
      <text x="348" y="1951" font-size="9.5" font-family="'Cascadia Mono', Consolas, 'DejaVu Sans Mono', monospace" letter-spacing="0.06em" fill="var(--uc-soft, #5B6B66)">E2</text>
      <ellipse cx="490" cy="1982" rx="145" ry="25" fill="var(--uc-vc, #8C2F4E)" fill-opacity="0.13" stroke="var(--uc-vc, #8C2F4E)" stroke-width="1.6"/>
      <text x="490" y="1979" text-anchor="middle" font-size="12.5" fill="var(--uc-ink, #16201D)">Read an escalated complaint</text>
      <text x="490" y="1995" text-anchor="middle" font-size="12.5" fill="var(--uc-ink, #16201D)">(read-only)</text>
  </g>
  <g data-role="admin">
    <rect x="300" y="2047" width="700" height="255" rx="9" fill="var(--uc-admin, #4A4E58)" fill-opacity="0.045" stroke="var(--uc-admin, #4A4E58)" stroke-opacity="0.4" stroke-dasharray="7 5"/>
    <text x="316" y="2071" font-size="11" font-weight="700" letter-spacing="0.13em" fill="var(--uc-admin, #4A4E58)">F · SYSTEM ADMINISTRATION</text>
    <g stroke="var(--uc-admin, #4A4E58)" stroke-width="1.4" stroke-opacity="0.85" fill="none">
      <path d="M148 2179 L345 2123"/>
      <path d="M148 2179 L345 2191"/>
      <path d="M148 2179 L345 2259"/>
    </g>
    <circle cx="130" cy="2157" r="12" fill="var(--uc-bg, #FFFFFF)" stroke="var(--uc-admin, #4A4E58)" stroke-width="2"/>
    <path d="M130 2169 L130 2199 M112 2179 L148 2179 M130 2199 L116 2221 M130 2199 L144 2221" fill="none" stroke="var(--uc-admin, #4A4E58)" stroke-width="2" stroke-linecap="round"/>
    <text x="130" y="2247" text-anchor="middle" font-size="12.5" font-weight="600" fill="var(--uc-admin, #4A4E58)">Administrator</text>
      <text x="348" y="2092" font-size="9.5" font-family="'Cascadia Mono', Consolas, 'DejaVu Sans Mono', monospace" letter-spacing="0.06em" fill="var(--uc-soft, #5B6B66)">F1</text>
      <ellipse cx="490" cy="2123" rx="145" ry="25" fill="var(--uc-admin, #4A4E58)" fill-opacity="0.13" stroke="var(--uc-admin, #4A4E58)" stroke-width="1.6"/>
      <text x="490" y="2127.5" text-anchor="middle" font-size="12.5" fill="var(--uc-ink, #16201D)">Provision HOD and VC accounts</text>
      <text x="348" y="2160" font-size="9.5" font-family="'Cascadia Mono', Consolas, 'DejaVu Sans Mono', monospace" letter-spacing="0.06em" fill="var(--uc-soft, #5B6B66)">F2</text>
      <ellipse cx="490" cy="2191" rx="145" ry="25" fill="var(--uc-admin, #4A4E58)" fill-opacity="0.13" stroke="var(--uc-admin, #4A4E58)" stroke-width="1.6"/>
      <text x="490" y="2195.5" text-anchor="middle" font-size="12.5" fill="var(--uc-ink, #16201D)">Manage records in Django admin</text>
      <text x="348" y="2228" font-size="9.5" font-family="'Cascadia Mono', Consolas, 'DejaVu Sans Mono', monospace" letter-spacing="0.06em" fill="var(--uc-soft, #5B6B66)">F3</text>
      <ellipse cx="490" cy="2259" rx="145" ry="25" fill="var(--uc-admin, #4A4E58)" fill-opacity="0.13" stroke="var(--uc-admin, #4A4E58)" stroke-width="1.6"/>
      <text x="490" y="2263.5" text-anchor="middle" font-size="12.5" fill="var(--uc-ink, #16201D)">Re-encode stored face images</text>
  </g>
  <g data-role="hod">
    <path d="M587.8 1414.5 L761.1 1381.8" fill="none" stroke="var(--uc-soft, #5B6B66)" stroke-width="1.2" stroke-dasharray="6 4" marker-end="url(#uc-open)"/>
    <text x="672.6" y="1388.3" text-anchor="middle" font-size="9.5" font-style="italic" fill="var(--uc-soft, #5B6B66)">«include»</text>
  </g>
  <g data-role="lecturer">
    <circle cx="130" cy="1153" r="12" fill="var(--uc-bg, #FFFFFF)" stroke="var(--uc-lecturer, #2E4C9B)" stroke-width="2"/>
    <path d="M130 1165 L130 1195 M112 1175 L148 1175 M130 1195 L116 1217 M130 1195 L144 1217" fill="none" stroke="var(--uc-lecturer, #2E4C9B)" stroke-width="2" stroke-linecap="round"/>
    <text x="130" y="1243" text-anchor="middle" font-size="12.5" font-weight="600" fill="var(--uc-lecturer, #2E4C9B)">Course Rep</text>
    <text x="130" y="1259" text-anchor="middle" font-size="10.5" font-style="italic" fill="var(--uc-soft, #5B6B66)">(own course only)</text>
    <path d="M130 1141 L130 1112" fill="none" stroke="var(--uc-lecturer, #2E4C9B)" stroke-width="1.5"/>
    <polygon points="130,1098 123,1112 137,1112" fill="var(--uc-bg, #FFFFFF)" stroke="var(--uc-lecturer, #2E4C9B)" stroke-width="1.5" stroke-linejoin="round"/>
  </g>
  <g data-role="student">
    <path d="M970 471 L1162 459" fill="none" stroke="var(--uc-ext, #5F6B68)" stroke-width="1.4"/>
    <circle cx="1180" cy="437" r="12" fill="var(--uc-bg, #FFFFFF)" stroke="var(--uc-ext, #5F6B68)" stroke-width="2" stroke-dasharray="5 4"/>
    <path d="M1180 449 L1180 479 M1162 459 L1198 459 M1180 479 L1166 501 M1180 479 L1194 501" fill="none" stroke="var(--uc-ext, #5F6B68)" stroke-width="2" stroke-linecap="round" stroke-dasharray="5 4"/>
    <text x="1180" y="413" text-anchor="middle" font-size="10" font-style="italic" fill="var(--uc-soft, #5B6B66)">«device»</text>
    <text x="1180" y="527" text-anchor="middle" font-size="12.5" font-weight="600" fill="var(--uc-ext, #5F6B68)">Device camera</text>
    <path d="M970 607 L1162 595" fill="none" stroke="var(--uc-ext, #5F6B68)" stroke-width="1.4"/>
    <circle cx="1180" cy="573" r="12" fill="var(--uc-bg, #FFFFFF)" stroke="var(--uc-ext, #5F6B68)" stroke-width="2" stroke-dasharray="5 4"/>
    <path d="M1180 585 L1180 615 M1162 595 L1198 595 M1180 615 L1166 637 M1180 615 L1194 637" fill="none" stroke="var(--uc-ext, #5F6B68)" stroke-width="2" stroke-linecap="round" stroke-dasharray="5 4"/>
    <text x="1180" y="549" text-anchor="middle" font-size="10" font-style="italic" fill="var(--uc-soft, #5B6B66)">«system»</text>
    <text x="1180" y="663" text-anchor="middle" font-size="12.5" font-weight="600" fill="var(--uc-ext, #5F6B68)">Face recognition</text>
    <text x="1180" y="679" text-anchor="middle" font-size="10.5" font-style="italic" fill="var(--uc-soft, #5B6B66)">(dlib encodings)</text>
  </g>
</svg>
